<svg version="1.1" preserveAspectRatio="none" xmlns="http://www.w3.org/2000/svg" width="500" height="500" viewBox="0 0 500 500"><rect width="100%" height="100%" fill="#E74C32" fill-opacity="1"/><svg viewBox="59.7918 55.7505 350.9976 245.4392" width="333" height="232.85416652421554" x="83.5px" y="133.5729px" xmlns="http://www.w3.org/2000/svg" xmlns:xlink="http://www.w3.org/1999/xlink" preserveAspectRatio="none"><defs></defs><style>.companyName {fill:#EFEFEF;fill-opacity:1;}.icon1 {fill:#281817;fill-opacity:1;}.icon2 {fill:#EFEFEF;fill-opacity:1;}.icon3 {fill:#DDAC77;fill-opacity:1;}.icon3-str {stroke:#DDAC77;stroke-opacity:1;}.text {fill:#EFEFEF;fill-opacity:1;}</style><g opacity="1" transform="rotate(0 212.4674 282.7897)">
<svg width="45.6464" height="18.4" x="212.4674" y="282.7897" version="1.1" preserveAspectRatio="none" viewBox="1.56 -27.16 68.16 27.48">
  <g transform="matrix(1 0 0 1 0 0)" class="text"><path id="id-6izo4zJp3" d="M5.12-22.84Q6.80-24.68 9.20-25.74Q11.60-26.80 14.16-26.80Q16.72-26.80 18.60-26.24Q20.48-25.68 22-24.72L22-24.72Q25.16-22.68 26.64-19.28L26.64-19.28L23.36-19.28Q22.16-21.44 20.02-22.66Q17.88-23.88 15.16-23.88Q12.44-23.88 10.52-23.06Q8.60-22.24 7.28-20.80L7.28-20.80Q4.56-17.84 4.56-13.24L4.56-13.24Q4.56-8.60 7.24-5.68L7.24-5.68Q10.08-2.60 14.76-2.60L14.76-2.60Q18.52-2.60 21.24-4.92L21.24-4.92Q24.12-7.36 24.12-11.36L24.12-11.36L14.44-11.36L14.44-14.08L26.88-14.08L26.88 0L24.12 0L24.12-4.68Q21.84-1.24 17.80-0.08L17.80-0.08Q16.32 0.32 13.90 0.32Q11.48 0.32 9.08-0.74Q6.68-1.80 5-3.64L5-3.64Q1.56-7.40 1.56-13.24L1.56-13.24Q1.56-19 5.12-22.84L5.12-22.84Z M43.64-2.40L43.64-2.40Q47.68-2.40 49.44-5.76L49.44-5.76L52.72-5.76Q51.68-3.04 49.42-1.36Q47.16 0.32 43.60 0.32L43.60 0.32Q39.08 0.32 36.24-2.68L36.24-2.68Q33.48-5.60 33.48-10L33.48-10Q33.48-14.44 36.12-17.32L36.12-17.32Q38.92-20.32 43.40-20.32L43.40-20.32Q47.88-20.32 50.68-17.32L50.68-17.32Q53.32-14.44 53.32-10L53.32-10L53.32-8.80L36.56-8.80Q36.88-6.04 38.76-4.24L38.76-4.24Q40.68-2.40 43.64-2.40ZM43.40-17.60L43.40-17.60Q40.64-17.60 38.76-15.88L38.76-15.88Q37.00-14.24 36.60-11.60L36.60-11.60L50.20-11.60Q49.80-14.24 48.04-15.88L48.04-15.88Q46.16-17.60 43.40-17.60Z M65.12 0L62.12 0L62.12-17.36L58.04-17.36L58.04-20L62.12-20L62.12-27.16L65.12-27.16L65.12-20L69.72-20L69.72-17.36L65.12-17.36L65.12 0Z"/></g>
</svg>
</g><g opacity="1" transform="rotate(0 59.7918 226.7897)">
<svg width="350.9976" height="40" x="59.7918" y="226.7897" version="1.1" preserveAspectRatio="none" viewBox="1 -30.6 274.48 31.28">
  <g transform="matrix(1 0 0 1 0 0)" class="companyName"><path id="id-D6z1nYkh14" d="M14.56 0.48Q7.80 0.48 4.40-3.08Q1-6.64 1-13.64L1-13.64Q1-17.92 2.64-21.02Q4.28-24.12 7.40-25.76Q10.52-27.40 14.80-27.40L14.80-27.40Q20-27.40 24.92-25.32L24.92-25.32Q24.52-21.48 23.80-17.64L23.80-17.64L20.76-17.44L18.24-21.12Q16.24-21.84 13.28-21.84L13.28-21.84Q11.88-21.84 9.92-21.56L9.92-21.56Q9.20-20.36 8.80-18.36Q8.40-16.36 8.40-14.04L8.40-14.04Q8.40-9.44 10.24-7.18Q12.08-4.92 15.96-4.88L15.96-4.88Q16.92-4.88 18.40-5.04L18.40-5.04L18.40-7.96Q18.40-8.76 18.28-9Q18.16-9.24 17.60-9.56L17.60-9.56L16.08-10.32L16.24-13.04L17.16-13.20Q17.60-13.28 20.28-13.70Q22.96-14.12 24.76-14.20L24.76-14.20Q25.16-13.44 25.36-12.48L25.36-12.48L25.36-2Q23.04-0.84 20.20-0.18Q17.36 0.48 14.56 0.48L14.56 0.48Z M38.52 0.48Q33.84 0.48 31.30-2.36Q28.76-5.20 28.76-10.20L28.76-10.20Q28.76-13.68 30-16.18Q31.24-18.68 33.52-20Q35.80-21.32 38.84-21.32L38.84-21.32Q43.36-21.32 45.78-18.44Q48.20-15.56 48.08-10.24L48.08-10.24L35.92-8Q36.48-6.32 37.50-5.54Q38.52-4.76 40.20-4.76L40.20-4.76Q41.36-4.76 42.96-5.10Q44.56-5.44 46.20-6.04L46.20-6.04L47.12-2.08Q45.64-0.96 43.28-0.24Q40.92 0.48 38.52 0.48L38.52 0.48ZM35.52-11.96L41.52-13.60Q41.44-15.12 40.66-15.82Q39.88-16.52 38.48-16.52L38.48-16.52Q37.32-16.52 36.28-16.20L36.28-16.20Q35.44-14.24 35.52-11.96L35.52-11.96Z M59.08 0.52Q55.56 0.52 53.88-1.22Q52.20-2.96 52.20-6.52L52.20-6.52L52.20-16.24L49.40-16.24L49.40-19.16L56.60-25.72L58.92-25.44L58.92-20.92L65.64-20.92L65.64-16.20L58.92-16.20L58.92-7.96Q58.92-6.04 59.46-5.40Q60-4.76 61.56-4.76L61.56-4.76Q62.88-4.76 65.24-5.12L65.24-5.12L65.72-1.04Q64.28-0.36 62.50 0.08Q60.72 0.52 59.08 0.52L59.08 0.52Z M79.88 0L79.68-3.92L83.12-4.88L83.12-10.16L75.80-21.88L73.96-24.16L74.12-26.96L85.84-26.96L86.24-23.16L83.64-22.44L87.84-15.32L91.32-21.20Q91.48-21.48 91.48-21.76L91.48-21.76Q91.48-22.20 91-22.40L91-22.40L88.68-23.44L88.96-26.96L99.04-26.96L99.32-23.20L97.72-22.24L90.36-11.44L90.36-6.48Q90.36-5.52 90.50-5.24Q90.64-4.96 91.20-4.68L91.20-4.68L93.68-3.20L93.52 0L79.88 0Z M107.48 0.52Q102.40 0.52 99.90-2.08Q97.40-4.68 97.40-10.04L97.40-10.04Q97.40-13.48 98.66-16.04Q99.92-18.60 102.28-19.96Q104.64-21.32 107.84-21.32L107.84-21.32Q118.20-21.32 118.20-10.60L118.20-10.60Q118.20-5.36 115.38-2.42Q112.56 0.52 107.48 0.52L107.48 0.52ZM108.12-4.16Q108.92-4.16 109.52-4.30Q110.12-4.44 110.80-4.76L110.80-4.76Q111.04-5.68 111.20-7.12Q111.36-8.56 111.36-9.88L111.36-9.88Q111.36-13.12 110.34-14.80Q109.32-16.48 107.32-16.48L107.32-16.48Q106-16.48 104.64-16.12L104.64-16.12Q104.36-15.52 104.20-14.18Q104.04-12.84 104.04-11.12L104.04-11.12Q104.04-7.76 105.10-5.96Q106.16-4.16 108.12-4.16L108.12-4.16Z M128.76 0.56Q125.56 0.56 124-1.34Q122.44-3.24 122.44-7.08L122.44-7.08L122.44-14.24Q122.44-15.12 122.30-15.38Q122.16-15.64 121.60-15.96L121.60-15.96L119.80-16.92L120-19.92Q120.56-20 120.80-20.08L120.80-20.08Q121.24-20.16 123.94-20.64Q126.64-21.12 128.44-21.20L128.44-21.20Q128.88-20.20 129.12-18.88L129.12-18.88L129.12-8.80Q129.12-7.04 129.22-6.32Q129.32-5.60 129.86-5.22Q130.40-4.84 131.72-4.84L131.72-4.84Q133.64-4.84 135.44-5.52L135.44-5.52L135.44-14.24Q135.44-15.12 135.32-15.38Q135.20-15.64 134.68-15.96L134.68-15.96L132.92-16.92L133.08-19.92Q136.32-20.52 138.14-20.84Q139.96-21.16 141.48-21.20L141.48-21.20Q141.92-20.20 142.16-18.88L142.16-18.88L142.16-5.76Q142.16-5.04 142.28-4.76Q142.40-4.48 142.84-4.20L142.84-4.20L144.44-3.28L144.32-0.80Q142.60-0.36 140.36-0.02Q138.12 0.32 136.20 0.40L136.20 0.40Q136.04-0.08 135.84-0.80L135.84-0.80Q135.80-1.12 135.64-1.56L135.64-1.56L135.52-1.56Q133.88-0.60 132.06-0.02Q130.24 0.56 128.76 0.56L128.76 0.56Z M146.28 0L146.08-3.80L148.52-4.52L148.52-14.24Q148.52-15.12 148.40-15.38Q148.28-15.64 147.76-15.96L147.76-15.96L146-16.92L146.12-19.92Q146.80-20.08 147.28-20.12L147.28-20.12Q152.12-21.12 154.44-21.20L154.44-21.20Q154.80-20.16 155.12-18.60L155.12-18.60Q157.52-20.48 159.20-21.20L159.20-21.20L161.48-21.20Q161.44-19.68 161.28-17.90Q161.12-16.12 160.88-15.04L160.88-15.04Q159.44-15.12 158.76-15.12L158.76-15.12Q157.08-15.12 155.28-14.92L155.28-14.92L155.28-5.84Q155.28-5 155.40-4.72Q155.52-4.44 156.04-4.12L156.04-4.12L158.44-2.84L158.28 0L146.28 0Z M179.92 0.12Q175.60 0.12 171.96-0.24L171.96-0.24L171.76-4.08L174.68-4.88L174.68-20.12Q174.68-21.16 174.52-21.50Q174.36-21.84 173.68-22.12L173.68-22.12L171.60-23.28L171.84-26.60Q176-26.92 178.84-27.10Q181.68-27.28 183.40-27.28L183.40-27.28Q188.92-27.28 192.26-26Q195.60-24.72 197.14-21.96Q198.68-19.20 198.68-14.64L198.68-14.64Q198.68-8.88 196.04-5.32L196.04-5.32Q193.68-2.24 189.78-1.06Q185.88 0.12 179.92 0.12L179.92 0.12ZM184.96-5.60Q188.32-5.60 190.28-6.40L190.28-6.40Q190.64-7.40 190.94-9.52Q191.24-11.64 191.24-13.48L191.24-13.48Q191.24-18 189.38-20.16Q187.52-22.32 183.72-22.32L183.72-22.32Q183.20-22.32 182.76-22.28Q182.32-22.24 181.92-22.20L181.92-22.20L181.92-5.80Q183.52-5.60 184.96-5.60L184.96-5.60Z M211.32 0.48Q206.64 0.48 204.10-2.36Q201.56-5.20 201.56-10.20L201.56-10.20Q201.56-13.68 202.80-16.18Q204.04-18.68 206.32-20Q208.60-21.32 211.64-21.32L211.64-21.32Q216.16-21.32 218.58-18.44Q221-15.56 220.88-10.24L220.88-10.24L208.72-8Q209.28-6.32 210.30-5.54Q211.32-4.76 213-4.76L213-4.76Q214.16-4.76 215.76-5.10Q217.36-5.44 219-6.04L219-6.04L219.92-2.08Q218.44-0.96 216.08-0.24Q213.72 0.48 211.32 0.48L211.32 0.48ZM208.32-11.96L214.32-13.60Q214.24-15.12 213.46-15.82Q212.68-16.52 211.28-16.52L211.28-16.52Q210.12-16.52 209.08-16.20L209.08-16.20Q208.24-14.24 208.32-11.96L208.32-11.96Z M228.60 0.52Q225.88 0.52 224.24-0.98Q222.60-2.48 222.60-4.84L222.60-4.84Q222.60-8 225.78-9.80Q228.96-11.60 235.04-11.84L235.04-11.84Q235.04-13.72 234.74-14.62Q234.44-15.52 233.66-15.86Q232.88-16.20 231.28-16.20L231.28-16.20Q229.64-16.20 228.96-16.08L228.96-16.08L227.32-12.84L224.36-13.04Q223.68-16.24 223.40-19.68L223.40-19.68Q225.64-20.44 228.30-20.88Q230.96-21.32 233.28-21.32L233.28-21.32Q237.52-21.32 239.36-19.66Q241.20-18 241.20-14.16L241.20-14.16L241.20-5.80Q241.20-5.08 241.34-4.80Q241.48-4.52 241.96-4.24L241.96-4.24L243.56-3.32L243.40-0.84Q238.76 0.24 236.08 0.36L236.08 0.36Q236 0.12 235.84-0.50Q235.68-1.12 235.56-1.68L235.56-1.68Q234-0.68 232.14-0.08Q230.28 0.52 228.60 0.52L228.60 0.52ZM231.28-4Q232.88-4 235.16-5.08L235.16-5.08L235-8.12Q234.04-8.20 233.72-8.20L233.72-8.20Q232.64-8.20 231.20-7.98Q229.76-7.76 228.92-7.48L228.92-7.48Q228.80-6.96 228.80-6.52L228.80-6.52Q228.80-5.32 229.46-4.66Q230.12-4 231.28-4L231.28-4Z M245.08 0L244.96-3.68L247.76-4.52L247.76-23.68Q247.76-24.56 247.62-24.82Q247.48-25.08 246.92-25.40L246.92-25.40L245.16-26.32L245.36-29.36Q246.16-29.52 246.60-29.56L246.60-29.56Q251.88-30.52 253.96-30.60L253.96-30.60Q254.36-29.68 254.48-28.52L254.48-28.52L254.48-5.84Q254.48-5 254.60-4.72Q254.72-4.44 255.28-4.12L255.28-4.12L257.24-3L257.08 0L245.08 0Z M266.08 0.68Q262.92 0.68 258.76-0.44L258.76-0.44Q259-4.36 259.28-6.24L259.28-6.24L261.56-6.68L264.08-4Q265.40-3.60 267.04-3.60L267.04-3.60Q267.96-3.60 268.48-3.72L268.48-3.72Q268.60-4.04 268.60-4.60L268.60-4.60Q268.60-5.08 268.38-5.40Q268.16-5.72 267.40-6.16Q266.64-6.60 264.76-7.52L264.76-7.52Q262.40-8.76 261.16-9.74Q259.92-10.72 259.38-11.76Q258.84-12.80 258.84-14.24L258.84-14.24Q258.84-17.44 261.22-19.32Q263.60-21.20 267.68-21.20L267.68-21.20Q269.36-21.20 271.22-20.82Q273.08-20.44 274.56-19.80L274.56-19.80Q274.56-17.20 274.20-14L274.20-14L272.12-13.68L269.44-16.56Q268.40-16.88 266.40-16.88L266.40-16.88Q266.08-16.88 265.12-16.80L265.12-16.80Q265-16.56 265-16.04L265-16.04Q265-15.48 265.32-15.06Q265.64-14.64 266.46-14.14Q267.28-13.64 269.08-12.72L269.08-12.72Q271.72-11.44 273.06-10.50Q274.40-9.56 274.94-8.60Q275.48-7.64 275.48-6.28L275.48-6.28Q275.48-3 272.98-1.16Q270.48 0.68 266.08 0.68L266.08 0.68Z"/></g>
</svg>
</g><g opacity="1" transform="rotate(0 182.641 55.7505)">
<svg width="105.2992" height="131.0392" x="182.641" y="55.7505" version="1.1" preserveAspectRatio="none" viewBox="32.29998779296875 16 135 168">
  <g transform="matrix(1 0 0 1 0 0)" ><g><path d="M159.4 58.3H141V54c0-13.7-9.6-25.4-22.8-28-1.7-.3-3.5-.5-5.3-.5-1.7 0-3 1.3-3 3s1.3 3 3 3c1.4 0 2.8.1 4.2.4 10.4 2 18 11.3 18 22.1v4.3h-24.5v-12c0-16.7-13.4-30.3-29.9-30.3h-3.6c-16.5 0-29.9 13.6-29.9 30.3v12h-7c-4.3 0-7.9 3.5-7.9 7.9v109.9c0 4.3 3.5 7.9 7.9 7.9h119.1c4.3 0 7.9-3.5 8-7.9V66.2c-.1-4.4-3.6-7.9-7.9-7.9zm-106.1-12C53.3 32.9 64 22 77.1 22h3.6c13.2 0 23.9 10.9 23.9 24.3v12H87.3V56c0-6 2.3-11.7 6.5-15.9 1.2-1.2 1.2-3.1 0-4.2-1.2-1.2-3.1-1.2-4.2 0-5.3 5.4-8.2 12.5-8.2 20.1v2.2H53.3V46.3zM38.5 176V66.2c0-1 .8-1.9 1.9-1.9l7-.1v14.9c0 1.7 1.3 3 3 3s3-1.3 3-3V64.3h51.4v14.9c0 1.7 1.3 3 3 3s3-1.3 3-3V64.3H126v113.6H40.3c-1 0-1.8-.8-1.8-1.9zm122.9 0c-.1 1-.9 1.9-2 1.9h-10.6v-53.7c0-1.7-1.3-3-3-3s-3 1.3-3 3v53.7h-11.1V64.3h11.1v32.4c0 1.7 1.3 3 3 3s3-1.3 3-3V64.3h10.6c1 0 1.9.8 2 1.9V176z" data-color="1" class="icon1"></path></g></g>
</svg>
</g></svg></svg>