<svg version="1.1" preserveAspectRatio="none" xmlns="http://www.w3.org/2000/svg" width="500" height="500" viewBox="0 0 500 500"><rect width="100%" height="100%" fill="#FFFFFF" fill-opacity="1"/><svg viewBox="-104.5497 57.421 417.1815 106" width="333" height="84.61065507458983" x="83.5px" y="207.6947px" xmlns="http://www.w3.org/2000/svg" xmlns:xlink="http://www.w3.org/1999/xlink" preserveAspectRatio="none"><defs></defs><style>.companyName {fill:#101010;fill-opacity:1;}.icon3-str {stroke:#ED4545;stroke-opacity:1;}.shape {fill:#F4FF69;fill-opacity:1;}.shapeStroke-str {stroke:#101010;stroke-opacity:1;}.text {fill:#101010;fill-opacity:1;}</style><g opacity="1" transform="rotate(0 -104.5497 57.421)">
<svg width="417.1815" height="66" x="-104.5497" y="57.421" version="1.1" preserveAspectRatio="none" viewBox="0 0 417.1815 66">
  <defs><rect x="0" y="0" width="417.1815" height="66" rx="0px" ry="0px" id="id-eGTWkAZcd1678753294043"></rect></defs><use class="shape shapeStroke-str" style="stroke-width:0;" xlink:href="#id-eGTWkAZcd1678753294043"></use>
</svg>
</g><g opacity="1" transform="rotate(0 78.7389 143.421)">
<svg width="50.6043" height="20" x="78.7389" y="143.421" version="1.1" preserveAspectRatio="none" viewBox="2.08 -28.24 72.04 28.48">
  <g transform="matrix(1 0 0 1 0 0)" class="text"><path id="id-6izo4zJp3" d="M24.28-4.56L24.28-14L27.12-14L27.12-3.32Q25.16-1.60 22.48-0.68Q19.80 0.24 16.84 0.24L16.84 0.24Q12.64 0.24 9.28-1.60Q5.92-3.44 4-6.70Q2.08-9.96 2.08-14L2.08-14Q2.08-18.04 4-21.30Q5.92-24.56 9.28-26.40Q12.64-28.24 16.88-28.24L16.88-28.24Q20.08-28.24 22.76-27.22Q25.44-26.20 27.28-24.20L27.28-24.20L25.44-22.32Q22.12-25.60 17-25.60L17-25.60Q13.60-25.60 10.86-24.10Q8.12-22.60 6.56-19.94Q5-17.28 5-14L5-14Q5-10.72 6.56-8.08Q8.12-5.44 10.84-3.92Q13.56-2.40 16.96-2.40L16.96-2.40Q21.28-2.40 24.28-4.56L24.28-4.56Z M55.24-10.52L55.20-9.64L37.60-9.64Q37.84-6.36 40.12-4.34Q42.40-2.32 45.88-2.32L45.88-2.32Q47.84-2.32 49.48-3.02Q51.12-3.72 52.32-5.08L52.32-5.08L53.92-3.24Q52.52-1.56 50.42-0.68Q48.32 0.20 45.80 0.20L45.80 0.20Q42.56 0.20 40.06-1.18Q37.56-2.56 36.16-5Q34.76-7.44 34.76-10.52L34.76-10.52Q34.76-13.60 36.10-16.04Q37.44-18.48 39.78-19.84Q42.12-21.20 45.04-21.20L45.04-21.20Q47.96-21.20 50.28-19.84Q52.60-18.48 53.92-16.06Q55.24-13.64 55.24-10.52L55.24-10.52ZM45.04-18.76Q42-18.76 39.94-16.82Q37.88-14.88 37.60-11.76L37.60-11.76L52.52-11.76Q52.24-14.88 50.18-16.82Q48.12-18.76 45.04-18.76L45.04-18.76Z M73.12-3.32L74.12-1.28Q73.32-0.56 72.14-0.18Q70.96 0.20 69.68 0.20L69.68 0.20Q66.72 0.20 65.12-1.40Q63.52-3 63.52-5.92L63.52-5.92L63.52-18.64L59.76-18.64L59.76-21.04L63.52-21.04L63.52-25.64L66.36-25.64L66.36-21.04L72.76-21.04L72.76-18.64L66.36-18.64L66.36-6.08Q66.36-4.20 67.30-3.22Q68.24-2.24 70-2.24L70-2.24Q70.88-2.24 71.70-2.52Q72.52-2.80 73.12-3.32L73.12-3.32Z"/></g>
</svg>
</g><g opacity="1" transform="rotate(0 -94.5497 65.421)">
<svg width="397.1815" height="50" x="-94.5497" y="65.421" version="1.1" preserveAspectRatio="none" viewBox="2.16 -32.72 263.4 33.16">
  <g transform="matrix(1 0 0 1 0 0)" class="companyName"><path id="id-D6z1nYkh14" d="M10.16 0.44Q5.80 0.44 3.98-2.22Q2.16-4.88 2.16-9.88L2.16-9.88L2.16-22.52Q2.16-27.56 3.96-30.14Q5.76-32.72 10.36-32.72L10.36-32.72Q14.56-32.72 16.38-30.38Q18.20-28.04 18.20-23.40L18.20-23.40L18.20-22.28L15.32-22.28L15.32-23.40Q15.32-27.04 14.28-28.66Q13.24-30.28 10.40-30.28L10.40-30.28Q8.28-30.28 7.14-29.36Q6-28.44 5.62-26.86Q5.24-25.28 5.24-22.84L5.24-22.84L5.24-9.52Q5.24-5.72 6.34-3.88Q7.44-2.04 10.44-2.04L10.44-2.04Q13.28-2.04 14.40-3.90Q15.52-5.76 15.52-9.60L15.52-9.60L15.52-13.40L10.72-13.40L10.72-15.68L18.32-15.68L18.32 0L16.36 0L16-3.68Q15.32-1.72 13.92-0.64Q12.52 0.44 10.16 0.44L10.16 0.44Z M25.56 0L25.56-32.40L37.28-32.40L37.28-30.04L28.64-30.04L28.64-17.88L35.68-17.88L35.68-15.64L28.64-15.64L28.64-2.28L37.36-2.28L37.36 0L25.56 0Z M47.52 0L47.52-30.04L41.40-30.04L41.40-32.40L56.52-32.40L56.52-30.04L50.56-30.04L50.56 0L47.52 0Z M77.40 0L77.40-10.76L70.08-32.40L73.04-32.40L78.88-14.40L84.48-32.40L87.48-32.40L80.36-10.76L80.36 0L77.40 0Z M100.68 0.40Q96.12 0.40 94.22-2.20Q92.32-4.80 92.32-9.56L92.32-9.56L92.32-23Q92.32-27.72 94.24-30.22Q96.16-32.72 100.68-32.72L100.68-32.72Q105.12-32.72 107.04-30.20Q108.96-27.68 108.96-23L108.96-23L108.96-9.52Q108.96-4.76 107.08-2.18Q105.20 0.40 100.68 0.40L100.68 0.40ZM100.68-2.04Q103.64-2.04 104.76-3.78Q105.88-5.52 105.88-8.88L105.88-8.88L105.88-23.56Q105.88-26.92 104.78-28.60Q103.68-30.28 100.68-30.28L100.68-30.28Q97.64-30.28 96.52-28.62Q95.40-26.96 95.40-23.56L95.40-23.56L95.40-8.88Q95.40-5.48 96.52-3.76Q97.64-2.04 100.68-2.04L100.68-2.04Z M123.92 0.40Q119.24 0.40 117.44-1.98Q115.64-4.36 115.64-8.84L115.64-8.84L115.64-32.40L118.60-32.40L118.60-8.76Q118.60-5.56 119.74-3.80Q120.88-2.04 123.92-2.04L123.92-2.04Q126.84-2.04 128.04-3.82Q129.24-5.60 129.24-8.76L129.24-8.76L129.24-32.40L132.16-32.40L132.16-8.84Q132.16-4.44 130.30-2.02Q128.44 0.40 123.92 0.40L123.92 0.40Z M139.48 0L139.48-32.40L146.80-32.40Q151.16-32.40 153-30.30Q154.84-28.20 154.84-24.16L154.84-24.16Q154.84-21.08 153.84-19.08Q152.84-17.08 150.36-16.56L150.36-16.56L155.32 0L152.36 0L147.60-15.92L142.52-15.92L142.52 0L139.48 0ZM142.52-18.16L146.64-18.16Q149.56-18.16 150.72-19.60Q151.88-21.04 151.88-24.16L151.88-24.16Q151.88-27.32 150.78-28.72Q149.68-30.12 146.72-30.12L146.72-30.12L142.52-30.12L142.52-18.16Z M172.12 0L172.12-32.40L179.16-32.40Q183.96-32.40 185.96-29.94Q187.96-27.48 187.96-22.88L187.96-22.88L187.96-10Q187.96-5.16 186.02-2.58Q184.08 0 179.44 0L179.44 0L172.12 0ZM175.16-2.28L179.24-2.28Q181.68-2.28 182.90-3.30Q184.12-4.32 184.48-6.02Q184.84-7.72 184.84-10.48L184.84-10.48L184.84-22.56Q184.84-25.20 184.40-26.78Q183.96-28.36 182.72-29.20Q181.48-30.04 179.12-30.04L179.12-30.04L175.16-30.04L175.16-2.28Z M194.92 0L194.92-32.40L206.64-32.40L206.64-30.04L198.00-30.04L198.00-17.88L205.04-17.88L205.04-15.64L198.00-15.64L198.00-2.28L206.72-2.28L206.72 0L194.92 0Z M211.12 0L217.96-32.40L221.16-32.40L228.04 0L225.04 0L223.44-8.68L215.72-8.68L214.08 0L211.12 0ZM216.16-10.88L223.04-10.88L219.60-28.36L216.16-10.88Z M233.96 0L233.96-32.40L237.00-32.40L237.00-2.28L246.20-2.28L246.20 0L233.96 0Z M258.12 0.40Q254.32 0.40 252.32-1.94Q250.32-4.28 250.04-8.40L250.04-8.40L252.72-9.20Q253.08-5.76 254.26-3.92Q255.44-2.08 258.16-2.08L258.16-2.08Q262.72-2.08 262.72-6.76L262.72-6.76Q262.72-8.76 261.78-10.28Q260.84-11.80 258.76-13.76L258.76-13.76L253.04-19.24Q251.48-20.68 250.78-22.26Q250.08-23.84 250.08-25.76L250.08-25.76Q250.08-29.08 252.06-30.90Q254.04-32.72 257.40-32.72L257.40-32.72Q261-32.72 262.92-30.80Q264.84-28.88 265.16-24.52L265.16-24.52L262.56-23.84Q262.32-27.12 261.18-28.72Q260.04-30.32 257.40-30.32L257.40-30.32Q255.32-30.32 254.08-29.24Q252.84-28.16 252.84-26.04L252.84-26.04Q252.84-24.68 253.36-23.60Q253.88-22.52 255.12-21.32L255.12-21.32L260.84-15.92Q263.04-13.84 264.30-11.66Q265.56-9.48 265.56-6.96L265.56-6.96Q265.56-3.44 263.52-1.52Q261.48 0.40 258.12 0.40L258.12 0.40Z"/></g>
</svg>
</g></svg></svg>